<svg xmlns="http://www.w3.org/2000/svg" style="display: none;"><symbol id="shopping-bag" viewBox="0 0 512 512"><title>shopping-bag</title><path d="M437.333,106.667H384V53.333c0-2.833-1.125-5.542-3.125-7.542L338.208,3.125c-2-2-4.708-3.125-7.542-3.125H181.333 c-2.833,0-5.542,1.125-7.542,3.125l-42.667,42.667c-2,2-3.125,4.708-3.125,7.542v53.333H74.667 c-5.896,0-10.667,4.771-10.667,10.667v352C64,492.865,83.135,512,106.667,512h298.667C428.865,512,448,492.865,448,469.333v-352 C448,111.438,443.229,106.667,437.333,106.667z M341.333,36.417l21.333,21.333v48.917h-21.333V36.417z M192,21.333h128v21.333H192 V21.333z M192,64h128v42.667H192V64z M149.333,57.75l21.333-21.333v70.25h-21.333V57.75z M426.667,469.333 c0,11.76-9.573,21.333-21.333,21.333H106.667c-11.76,0-21.333-9.573-21.333-21.333V128h341.333V469.333z"/></symbol><symbol id="shopping-bag-1" viewBox="0 0 484.371 484.371"><title>shopping-bag-1</title><path d="m398.326 484.371h-312.29c-28.007.002-50.713-22.701-50.714-50.708 0-3.257.313-6.506.936-9.702l59.194-303.866h293.458l59.194 303.866c5.357 27.49-12.586 54.118-40.076 59.474-3.197.623-6.446.937-9.702.936z" fill="#f6b863"/><path d="m347.88 180.487c.033 11.845-9.544 21.475-21.389 21.507-11.845.033-21.474-9.544-21.507-21.389s9.544-21.474 21.389-21.507c11.832-.046 21.461 9.509 21.507 21.342z" fill="#eaa14e"/><path d="m179.378 180.487c.033 11.845-9.544 21.475-21.389 21.507-11.845.033-21.475-9.544-21.507-21.389-.033-11.845 9.544-21.474 21.389-21.507 11.832-.046 21.461 9.509 21.507 21.342z" fill="#eaa14e"/><path d="m326.432 188.237c-4.28 0-7.75-3.47-7.75-7.75v-88.486c-.525-42.247-35.199-76.07-77.446-75.545-41.507.516-75.029 34.038-75.545 75.545v88.486c0 4.28-3.47 7.75-7.75 7.75s-7.75-3.47-7.75-7.75v-88.486c.001-50.811 41.191-92.001 92.002-92.001s92.001 41.19 92.001 92.001v88.486c0 4.28-3.47 7.75-7.75 7.75-.004 0-.008 0-.012 0z" fill="#eeefee"/></symbol></svg>